<svg width="24" height="24" viewBox="0 0 24 24" fill="none" xmlns="http://www.w3.org/2000/svg">
<path d="M4.80002 20.3998V18.5998C4.80002 17.2743 5.87454 16.1998 7.20002 16.1998H16.8C18.1255 16.1998 19.2 17.2743 19.2 18.5998V20.9998M4.80002 21.5999C3.47454 21.5999 2.40002 20.4688 2.40002 19.0736V4.92622C2.40002 3.53097 3.47454 2.3999 4.80002 2.3999H19.2C20.5255 2.3999 21.6 3.53097 21.6 4.92622V19.0736C21.6 20.4688 20.5255 21.5999 19.2 21.5999H4.80002ZM15 8.99978C15 10.6566 13.6569 11.9998 12 11.9998C10.3432 11.9998 9.00002 10.6566 9.00002 8.99978C9.00002 7.34293 10.3432 5.99978 12 5.99978C13.6569 5.99978 15 7.34293 15 8.99978Z" stroke="black" stroke-width="2" stroke-linecap="round" stroke-linejoin="round"/>
</svg>
